<svg width="50" height="48" viewBox="0 0 50 48" fill="none" xmlns="http://www.w3.org/2000/svg">
<rect x="3" y="13" width="29" height="22" fill="#FFFFFF"/>
<path d="M47.9166 26V22M6.24992 12H35.4166C37.7178 12 39.5833 13.7909 39.5833 16V32C39.5833 34.2091 37.7178 36 35.4166 36H6.24992C3.94873 36 2.08325 34.2091 2.08325 32V16C2.08325 13.7909 3.94873 12 6.24992 12Z" stroke="#FFFFFF" stroke-width="4" stroke-linecap="round" stroke-linejoin="round"/>
<path d="M21.8587 16.7701C21.4004 16.4501 20.8021 16.4115 20.3065 16.67C19.8108 16.9284 19.5 17.441 19.5 18V20.5534L6.2787 18.0534C5.58383 17.922 4.89157 18.2938 4.61736 18.9456C4.34314 19.5975 4.56146 20.3523 5.14131 20.7572L20.1413 31.2299C20.5996 31.5499 21.1979 31.5885 21.6935 31.33C22.1892 31.0716 22.5 30.559 22.5 30V27.4466L35.7213 29.9466C36.4162 30.078 37.1084 29.7062 37.3826 29.0544C37.6569 28.4025 37.4385 27.6477 36.8587 27.2428L21.8587 16.7701Z" fill="#11111B" stroke="#FFFFFF" stroke-width="3" stroke-linejoin="round"/>
</svg>
