<svg width="41" height="40" viewBox="0 0 41 40" fill="none" xmlns="http://www.w3.org/2000/svg">
<path d="M6.98035 31.6667C6.04564 31.6667 5.24548 31.3403 4.57986 30.6875C3.91423 30.0347 3.58142 29.25 3.58142 28.3333V11.6667C3.58142 10.75 3.91423 9.96528 4.57986 9.3125C5.24548 8.65972 6.04564 8.33333 6.98035 8.33333H34.1718C35.1065 8.33333 35.9066 8.65972 36.5723 9.3125C37.2379 9.96528 37.5707 10.75 37.5707 11.6667V28.3333C37.5707 29.25 37.2379 30.0347 36.5723 30.6875C35.9066 31.3403 35.1065 31.6667 34.1718 31.6667H6.98035ZM6.98035 28.3333H34.1718V11.6667H6.98035V28.3333ZM13.7782 26.6667H27.3739V23.3333H13.7782V26.6667ZM8.67981 21.6667H12.0787V18.3333H8.67981V21.6667ZM13.7782 21.6667H17.1771V18.3333H13.7782V21.6667ZM18.8766 21.6667H22.2755V18.3333H18.8766V21.6667ZM23.975 21.6667H27.3739V18.3333H23.975V21.6667ZM29.0734 21.6667H32.4723V18.3333H29.0734V21.6667ZM8.67981 16.6667H12.0787V13.3333H8.67981V16.6667ZM13.7782 16.6667H17.1771V13.3333H13.7782V16.6667ZM18.8766 16.6667H22.2755V13.3333H18.8766V16.6667ZM23.975 16.6667H27.3739V13.3333H23.975V16.6667ZM29.0734 16.6667H32.4723V13.3333H29.0734V16.6667Z" fill="#FFFFFF"/>
</svg>
